<mxfile host="65bd71144e">
    <diagram id="JXWKTxL3_nK4k4YYtHSP" name="Page-1">
        <mxGraphModel dx="917" dy="766" grid="1" gridSize="10" guides="1" tooltips="1" connect="1" arrows="1" fold="1" page="1" pageScale="1" pageWidth="850" pageHeight="1100" math="0" shadow="0">
            <root>
                <mxCell id="0"/>
                <mxCell id="1" parent="0"/>
                <mxCell id="2" value="Configure Preparation System" style="strokeWidth=1;shadow=0;dashed=0;align=center;html=1;shape=mxgraph.mockup.containers.window;align=left;verticalAlign=top;spacingLeft=8;strokeColor2=#008cff;strokeColor3=#c4c4c4;fontColor=#666666;mainText=;fontSize=17;labelBackgroundColor=none;whiteSpace=wrap;" parent="1" vertex="1">
                    <mxGeometry x="50" y="90" width="660" height="400" as="geometry"/>
                </mxCell>
                <mxCell id="3" value="Confirm" style="strokeWidth=1;shadow=0;dashed=0;align=center;html=1;shape=mxgraph.mockup.buttons.button;strokeColor=#2D7600;fontColor=#ffffff;mainText=;buttonStyle=round;fontSize=17;fontStyle=1;fillColor=#60a917;whiteSpace=wrap;" parent="1" vertex="1">
                    <mxGeometry x="410" y="425" width="150" height="50" as="geometry"/>
                </mxCell>
                <mxCell id="4" value="Go back" style="strokeWidth=1;shadow=0;dashed=0;align=center;html=1;shape=mxgraph.mockup.buttons.button;strokeColor=#B20000;mainText=;buttonStyle=round;fontSize=17;fontStyle=1;fillColor=#e51400;whiteSpace=wrap;fontColor=#ffffff;" parent="1" vertex="1">
                    <mxGeometry x="220" y="425" width="150" height="50" as="geometry"/>
                </mxCell>
                <mxCell id="5" value="Upper bound for absolut outlier detection:" style="text;html=1;strokeColor=none;fillColor=none;align=left;verticalAlign=middle;whiteSpace=wrap;rounded=0;" parent="1" vertex="1">
                    <mxGeometry x="80" y="150" width="240" height="30" as="geometry"/>
                </mxCell>
                <mxCell id="6" value="&lt;i&gt;&lt;font&gt;10000&lt;/font&gt;&lt;/i&gt;" style="rounded=0;whiteSpace=wrap;html=1;fontColor=#000000;" parent="1" vertex="1">
                    <mxGeometry x="350" y="157.5" width="250" height="15" as="geometry"/>
                </mxCell>
                <mxCell id="7" value="Lower bound for absolut outlier detection:" style="text;html=1;strokeColor=none;fillColor=none;align=left;verticalAlign=middle;whiteSpace=wrap;rounded=0;" parent="1" vertex="1">
                    <mxGeometry x="80" y="190" width="230" height="30" as="geometry"/>
                </mxCell>
                <mxCell id="8" value="&lt;i&gt;&lt;font&gt;100&lt;/font&gt;&lt;/i&gt;" style="rounded=0;whiteSpace=wrap;html=1;fontColor=#000000;" parent="1" vertex="1">
                    <mxGeometry x="350" y="197.5" width="250" height="15" as="geometry"/>
                </mxCell>
                <mxCell id="9" value="Features to extract (write them in a comma separated list):" style="text;html=1;strokeColor=none;fillColor=none;align=left;verticalAlign=middle;whiteSpace=wrap;rounded=0;" parent="1" vertex="1">
                    <mxGeometry x="80" y="230" width="240" height="30" as="geometry"/>
                </mxCell>
                <mxCell id="10" value="&lt;i&gt;Maximum accelerationTimeSeries, Median accelerationTimeSeries, drivingDuration, pathLength, difference initial/final photos, rentalProfile&lt;/i&gt;" style="rounded=0;whiteSpace=wrap;html=1;fontColor=#000000;" parent="1" vertex="1">
                    <mxGeometry x="350" y="237.5" width="250" height="72.5" as="geometry"/>
                </mxCell>
                <mxCell id="13" value="Production system IP address :" style="text;html=1;strokeColor=none;fillColor=none;align=left;verticalAlign=middle;whiteSpace=wrap;rounded=0;" parent="1" vertex="1">
                    <mxGeometry x="80" y="330" width="210" height="30" as="geometry"/>
                </mxCell>
                <mxCell id="14" value="&lt;i style=&quot;border-color: var(--border-color);&quot;&gt;&lt;font style=&quot;border-color: var(--border-color);&quot;&gt;192.168.1.12&lt;/font&gt;&lt;/i&gt;" style="rounded=0;whiteSpace=wrap;html=1;fontColor=#000000;" parent="1" vertex="1">
                    <mxGeometry x="350" y="337.5" width="250" height="15" as="geometry"/>
                </mxCell>
                <mxCell id="15" value="Segregation system IP address :" style="text;html=1;strokeColor=none;fillColor=none;align=left;verticalAlign=middle;whiteSpace=wrap;rounded=0;" parent="1" vertex="1">
                    <mxGeometry x="80" y="370" width="210" height="30" as="geometry"/>
                </mxCell>
                <mxCell id="16" value="&lt;i style=&quot;border-color: var(--border-color);&quot;&gt;&lt;font style=&quot;border-color: var(--border-color);&quot;&gt;192.168.1.14&lt;/font&gt;&lt;/i&gt;" style="rounded=0;whiteSpace=wrap;html=1;fontColor=#000000;" parent="1" vertex="1">
                    <mxGeometry x="350" y="377.5" width="250" height="15" as="geometry"/>
                </mxCell>
            </root>
        </mxGraphModel>
    </diagram>
</mxfile>